<?xml version="1.0" standalone="no"?>
<!DOCTYPE svg PUBLIC "-//W3C//DTD SVG 20010904//EN"
 "http://www.w3.org/TR/2001/REC-SVG-20010904/DTD/svg10.dtd">
<svg version="1.0" xmlns="http://www.w3.org/2000/svg"
 width="260.000000pt" height="260.000000pt" viewBox="0 0 260.000000 260.000000"
 preserveAspectRatio="xMidYMid meet">
<metadata>
Created by potrace 1.14, written by Peter Selinger 2001-2017
</metadata>
<g transform="translate(0.000000,260.000000) scale(0.100000,-0.100000)"
fill="#000000" stroke="none">
<path d="M883 2183 c-18 -2 -33 -9 -33 -14 0 -6 -4 -8 -9 -4 -5 3 -12 1 -16
-5 -3 -5 -17 -10 -30 -10 -13 0 -27 -5 -31 -12 -5 -7 -3 -8 6 -3 8 5 11 4 6
-3 -4 -6 -13 -9 -21 -5 -10 3 -15 -2 -15 -16 0 -13 -12 -29 -32 -41 -18 -11
-26 -20 -18 -21 9 0 7 -4 -7 -11 -13 -6 -23 -15 -23 -20 0 -5 6 -6 13 -2 8 5
8 2 -2 -9 -7 -9 -10 -17 -5 -17 5 0 2 -5 -6 -10 -10 -6 -11 -10 -2 -10 8 0 12
-18 12 -57 0 -41 -3 -54 -10 -43 -6 9 -10 10 -10 3 0 -6 5 -15 10 -18 6 -3 7
-18 4 -33 -4 -18 -3 -23 4 -14 7 11 10 11 15 -2 3 -8 1 -17 -6 -20 -7 -2 -4
-5 6 -5 9 -1 17 -9 17 -18 0 -15 -2 -16 -10 -3 -5 8 -10 11 -10 6 0 -5 6 -17
14 -25 7 -9 17 -27 20 -41 6 -19 5 -21 -3 -10 -8 11 -11 11 -11 2 0 -7 6 -15
14 -18 8 -3 17 -13 20 -21 6 -14 4 -14 -11 -2 -11 10 -14 10 -9 1 13 -22 84
-53 89 -39 2 6 4 0 4 -16 0 -15 -4 -30 -10 -34 -6 -4 -8 0 -4 10 5 12 -3 21
-26 32 l-32 16 24 -21 c25 -21 22 -42 -2 -21 -11 9 -17 8 -26 -2 -6 -8 -8 -17
-4 -20 3 -4 -1 -7 -11 -7 -9 0 -14 -5 -11 -10 5 -8 11 -7 21 1 7 6 12 15 9 19
-3 5 -1 12 5 15 7 4 10 -3 7 -22 -4 -29 -19 -36 -48 -21 -19 9 -44 -13 -31
-28 4 -4 -1 -2 -10 5 -16 12 -22 9 -19 -11 0 -5 -6 -8 -14 -8 -8 0 -15 -6 -15
-13 0 -8 -18 -33 -40 -57 -22 -24 -40 -47 -40 -52 0 -5 -5 -6 -12 -2 -8 5 -9
2 -5 -10 4 -9 3 -15 -2 -12 -5 3 -14 -1 -21 -9 -11 -13 -10 -15 6 -9 18 5 18
5 0 -10 -10 -8 -15 -19 -11 -25 3 -6 -1 -11 -9 -11 -9 0 -16 -5 -16 -11 0 -5
6 -7 13 -3 6 4 5 -1 -4 -12 -9 -10 -14 -25 -12 -32 3 -7 1 -12 -4 -11 -20 4
-25 -2 -13 -16 10 -12 10 -19 2 -27 -7 -7 -12 -25 -12 -41 0 -15 -4 -26 -9
-23 -8 5 -8 -15 -1 -34 1 -3 2 -9 1 -14 -1 -4 4 -15 11 -24 10 -12 10 -14 1
-8 -17 9 -17 -6 0 -23 10 -11 9 -12 -2 -6 -11 6 -13 4 -8 -9 4 -10 7 -27 7
-37 0 -13 4 -18 12 -13 6 4 8 3 5 -3 -7 -11 18 -89 28 -85 4 2 10 0 13 -4 4
-4 2 -4 -5 0 -6 3 -14 2 -18 -4 -3 -6 4 -10 18 -10 19 0 26 -7 31 -31 3 -19
10 -28 17 -23 8 4 7 0 -1 -15 -9 -17 -9 -26 1 -37 14 -17 43 -19 33 -2 -4 7
-3 8 4 4 6 -4 9 -13 6 -20 -7 -18 42 -50 52 -34 5 7 3 8 -6 3 -9 -5 -11 -4 -6
4 9 14 66 -15 74 -38 2 -7 -5 -4 -17 8 -21 21 -41 28 -41 13 0 -4 9 -12 19
-17 90 -46 117 -61 122 -68 3 -5 9 -1 12 8 4 9 3 14 -1 11 -5 -3 -26 6 -48 19
-21 14 -35 25 -31 25 4 0 19 -7 33 -17 14 -9 35 -17 47 -18 45 -3 107 -17 107
-24 0 -3 20 -7 45 -8 25 0 45 3 45 7 0 4 6 10 14 13 11 4 11 1 2 -19 -6 -13
-15 -22 -21 -20 -5 2 -19 0 -30 -5 -14 -6 -7 -7 21 -4 36 3 43 0 53 -21 6 -13
15 -24 21 -24 5 0 9 -3 9 -7 -4 -26 2 -35 15 -24 12 10 13 8 9 -8 -3 -13 0
-23 11 -27 9 -3 14 -10 11 -14 -2 -4 4 -15 15 -25 18 -16 19 -16 17 3 0 11 -5
18 -9 16 -4 -3 -8 2 -8 10 0 9 -5 16 -11 16 -5 0 -7 4 -4 10 3 5 1 10 -5 10
-6 0 -9 4 -5 9 3 6 -2 14 -10 19 -9 4 -17 21 -19 36 -2 15 -9 32 -17 37 -11 7
-9 9 9 9 12 0 22 -4 22 -10 0 -5 16 -7 35 -5 21 3 35 1 35 -6 0 -5 -5 -7 -12
-3 -6 4 -8 3 -5 -2 3 -6 27 -9 54 -8 26 0 54 -3 61 -9 8 -7 12 -5 12 6 0 11
-9 15 -30 15 -17 -1 -33 2 -36 5 -12 12 160 6 175 -6 11 -9 13 -9 8 0 -5 8 -1
11 12 10 11 0 18 -4 16 -7 -2 -3 1 -12 6 -20 9 -13 10 -13 8 0 -4 37 1 42 35
37 19 -2 38 -7 43 -10 11 -7 86 17 78 25 -8 8 -55 -3 -55 -13 0 -5 -5 -9 -11
-9 -8 0 -8 5 1 15 7 8 21 15 31 15 12 0 19 7 19 20 0 25 5 25 40 0 18 -13 31
-16 35 -10 3 5 1 10 -6 10 -7 0 -9 3 -6 6 4 4 13 1 22 -6 12 -10 15 -10 15 3
0 19 10 26 53 37 29 9 30 8 13 -5 -16 -12 -17 -15 -4 -15 14 0 43 -53 39 -72
0 -5 4 -8 10 -8 5 0 7 -5 4 -10 -4 -6 -3 -10 2 -9 26 5 52 -3 57 -17 5 -14 4
-15 -8 -5 -10 8 -16 9 -21 1 -3 -5 -5 -10 -3 -11 2 0 16 -3 32 -5 16 -3 35
-12 43 -20 19 -18 20 -18 25 9 3 17 -1 22 -17 23 -22 2 -87 59 -77 68 3 3 -2
8 -10 11 -10 4 -14 14 -11 28 4 17 3 19 -6 7 -9 -13 -10 -13 -15 0 -11 36 -14
60 -6 55 5 -3 10 1 13 7 2 8 8 9 13 4 5 -5 4 -11 -3 -13 -7 -3 -13 -12 -13
-21 1 -15 2 -15 11 1 6 9 14 15 20 12 5 -3 6 0 3 8 -3 8 0 18 7 23 8 5 10 3 5
-7 -4 -8 1 -4 10 9 9 12 21 22 26 22 6 0 4 -8 -3 -17 -13 -16 -12 -17 4 -4 9
7 17 19 17 26 0 7 7 16 16 19 14 6 15 4 4 -10 -9 -10 -2 -9 23 6 20 12 37 24
37 27 0 2 -5 1 -12 -3 -6 -4 -8 -3 -5 4 4 5 15 8 25 5 10 -2 29 5 43 17 l24
22 -25 -16 c-43 -28 -46 -17 -3 14 23 17 44 38 47 48 4 10 -2 8 -15 -8 l-21
-25 19 33 c10 19 25 38 34 43 19 10 34 52 16 43 -7 -3 -3 2 7 10 15 12 16 16
5 16 -10 1 -9 3 4 11 11 7 16 17 12 29 -3 10 1 27 9 37 9 10 23 27 32 38 8 11
13 15 10 8 -5 -8 0 -8 19 0 14 7 25 16 25 20 0 5 5 5 10 2 6 -3 10 -1 10 4 0
6 8 10 18 9 9 -1 38 4 64 11 l48 13 -25 20 c-14 11 -40 22 -58 24 -81 12 -155
58 -143 89 8 22 -25 125 -38 118 -6 -4 -5 1 3 10 12 15 9 21 -11 18 -4 0 -5 9
-2 22 6 32 -5 59 -22 53 -7 -3 -13 -2 -13 2 3 19 -2 30 -17 36 -10 4 -13 2 -8
-7 4 -6 -3 -2 -15 11 -24 24 -39 30 -25 9 5 -7 1 -4 -10 8 -10 11 -25 19 -33
17 -8 -2 -12 1 -9 7 4 6 -2 8 -15 6 -12 -2 -19 -2 -16 1 9 9 -25 44 -37 38 -6
-3 -2 3 10 13 11 10 18 25 16 32 -3 8 0 11 6 7 6 -4 16 4 23 16 12 22 11 22
-7 8 -18 -15 -18 -14 0 14 10 16 13 25 6 21 -8 -5 -11 -3 -8 6 3 8 10 13 16
12 8 -2 8 5 0 23 -9 20 -9 30 1 46 7 11 8 17 2 13 -7 -4 -11 4 -11 20 0 15 4
24 10 20 6 -3 7 1 4 9 -4 10 -1 16 7 16 11 0 11 2 -1 10 -12 7 -12 12 -2 22
14 14 16 32 2 23 -6 -4 -10 5 -10 20 0 18 4 24 13 20 6 -4 3 1 -7 9 -15 12
-16 16 -5 16 9 1 4 10 -13 25 -16 13 -28 31 -28 40 0 8 -7 15 -15 15 -9 0 -18
7 -21 15 -3 8 -19 21 -35 29 -16 8 -27 10 -23 5 3 -6 16 -14 28 -19 14 -6 16
-9 5 -9 -8 -1 -24 7 -35 17 -11 10 -26 16 -33 14 -8 -3 -11 0 -8 5 3 5 0 10
-8 10 -8 0 -12 -4 -9 -9 3 -4 -6 -8 -20 -8 -14 0 -26 5 -26 10 0 6 -7 10 -16
10 -9 0 -12 -5 -8 -12 6 -10 5 -10 -7 -1 -8 7 -33 11 -55 10 -21 -2 -50 1 -63
5 -15 5 -29 4 -37 -3 -10 -8 -14 -8 -14 0 0 6 -5 11 -11 11 -5 0 -8 -4 -5 -9
4 -5 -4 -7 -16 -3 -13 3 -19 1 -15 -5 5 -7 0 -9 -12 -6 -10 3 -22 -1 -26 -8
-6 -8 -4 -10 6 -4 12 8 12 6 0 -8 -15 -18 -26 -23 -16 -7 8 13 -1 13 -42 -2
-18 -7 -33 -16 -33 -20 0 -11 18 -10 25 2 3 6 14 10 23 10 11 0 6 -6 -12 -15
-16 -9 -35 -23 -43 -33 -8 -9 -11 -11 -7 -3 5 10 3 12 -5 7 -7 -5 -10 -14 -7
-22 3 -7 -2 -20 -10 -29 -8 -8 -13 -19 -9 -24 3 -5 -4 -16 -15 -24 -11 -7 -17
-17 -12 -22 4 -5 1 -5 -5 -1 -8 4 -13 1 -13 -8 0 -9 -7 -16 -15 -16 -8 0 -15
5 -15 11 0 5 5 7 12 3 8 -5 9 -2 4 11 -5 14 0 25 16 38 13 10 16 16 8 12 -10
-4 -9 -2 2 8 13 10 15 16 6 25 -7 7 -8 12 -4 12 5 0 2 8 -5 17 -10 11 -10 14
-1 9 6 -4 12 -3 12 2 0 11 -30 38 -39 35 -3 -1 -8 1 -10 3 -2 2 2 4 9 4 9 0 7
5 -6 15 -10 8 -23 14 -29 15 -5 0 -3 -5 5 -10 9 -6 10 -10 3 -10 -7 0 -21 9
-31 20 -11 12 -27 18 -40 15 -12 -2 -22 0 -22 4 0 4 -30 7 -67 6 -48 -1 -67
-5 -65 -14 1 -7 -2 -10 -8 -6 -6 3 -8 11 -5 16 4 5 3 8 -2 7 -4 0 -23 -3 -40
-5z m4 -19 c-3 -3 -12 -4 -19 -1 -8 3 -5 6 6 6 11 1 17 -2 13 -5z m323 -246
c0 -4 -4 -10 -10 -13 -5 -3 -10 -1 -10 5 0 6 -4 8 -10 5 -5 -3 -10 -2 -10 4 0
5 9 9 20 8 11 -1 20 -5 20 -9z m-25 -28 c3 -6 -1 -7 -9 -4 -18 7 -21 14 -7 14
6 0 13 -4 16 -10z m-14 -31 c-2 -8 -4 -20 -4 -26 0 -7 -6 -13 -14 -13 -7 0
-14 -12 -14 -27 -2 -25 -2 -25 -6 -5 -3 13 1 29 7 37 6 8 9 19 5 25 -3 5 2 10
12 10 15 0 16 2 3 11 -13 9 -13 10 0 6 8 -2 13 -11 11 -18z m-14 -71 c-3 -8
-6 -5 -6 6 -1 11 2 17 5 13 3 -3 4 -12 1 -19z m-30 -60 c-3 -8 -6 -5 -6 6 -1
11 2 17 5 13 3 -3 4 -12 1 -19z m21 -27 c-1 -22 -4 -26 -13 -18 -9 9 -9 16 -1
29 14 23 15 23 14 -11z m-54 -36 c-4 -8 -10 -15 -16 -15 -5 0 -6 6 -2 13 5 7
0 6 -11 -3 -10 -8 -16 -10 -12 -3 4 7 0 13 -10 16 -10 3 -1 5 19 6 29 1 36 -2
32 -14z m-69 -5 c13 -6 15 -9 5 -9 -8 0 -22 4 -30 9 -18 12 -2 12 25 0z m100
0 c-3 -5 -11 -10 -16 -10 -6 0 -7 5 -4 10 3 6 11 10 16 10 6 0 7 -4 4 -10z
m-162 -7 c-7 -2 -19 -2 -25 0 -7 3 -2 5 12 5 14 0 19 -2 13 -5z m187 -32 c6
-13 7 -21 2 -17 -6 3 -14 1 -18 -6 -4 -7 -4 -10 1 -6 15 13 43 -11 38 -32 -4
-13 1 -22 13 -27 18 -8 31 -63 15 -63 -14 0 -29 23 -24 37 3 8 0 13 -8 11 -8
-2 -13 3 -11 10 1 6 -3 12 -8 12 -7 0 -6 8 1 23 12 21 11 21 -6 7 -10 -8 -16
-10 -12 -3 4 6 3 14 -2 17 -5 4 -8 14 -6 24 2 9 4 23 4 31 1 17 4 14 21 -18z
m-280 15 c0 -2 -7 -7 -16 -10 -8 -3 -12 -2 -9 4 6 10 25 14 25 6z m87 -2 c-3
-3 -12 -4 -19 -1 -8 3 -5 6 6 6 11 1 17 -2 13 -5z m-87 -19 c16 8 35 15 42 15
12 -1 -46 -29 -67 -33 -5 -1 -13 -6 -16 -11 -4 -4 -6 4 -6 19 0 23 1 25 9 12
8 -15 12 -16 38 -2z m924 -57 c-5 -8 -2 -9 10 -5 10 4 15 3 11 -3 -7 -12 -35
-13 -35 -2 0 9 10 22 17 22 2 0 1 -5 -3 -12z m-24 -12 c0 -3 -4 -8 -10 -11 -5
-3 -10 -1 -10 4 0 6 5 11 10 11 6 0 10 -2 10 -4z m-31 -43 c-6 -7 -15 -11 -19
-8 -4 2 -18 -7 -30 -20 -13 -14 -29 -25 -36 -25 -7 0 -15 -6 -17 -12 -4 -8 -6
-9 -6 -2 -1 6 6 17 14 24 8 7 15 10 15 7 0 -3 13 7 29 22 31 29 71 40 50 14z
m-122 -75 c-3 -8 -6 -5 -6 6 -1 11 2 17 5 13 3 -3 4 -12 1 -19z m-22 2 c-3 -5
-14 -10 -23 -9 -14 0 -13 2 3 9 27 11 27 11 20 0z m399 -204 c1 -23 7 -50 14
-59 10 -12 10 -17 1 -23 -7 -4 -9 -3 -6 3 4 6 0 16 -8 23 -10 8 -15 30 -15 63
0 28 3 47 7 44 4 -4 7 -27 7 -51z m-1263 30 c-10 -12 -8 -17 9 -26 11 -6 18
-16 14 -21 -3 -6 2 -9 11 -7 10 2 20 -4 22 -12 3 -9 1 -11 -4 -5 -4 6 -14 10
-20 10 -7 0 -12 4 -10 8 3 12 -44 36 -59 30 -7 -3 -10 -11 -8 -18 3 -7 0 -16
-6 -20 -6 -4 -8 -16 -5 -28 4 -16 2 -15 -10 6 -19 32 -15 40 33 72 44 28 48
30 33 11z m-51 0 c0 -2 -8 -10 -17 -17 -16 -13 -17 -12 -4 4 13 16 21 21 21
13z m91 -23 c13 -16 12 -17 -3 -4 -10 7 -18 15 -18 17 0 8 8 3 21 -13z m-51
-23 c0 -5 -5 -10 -11 -10 -5 0 -7 5 -4 10 3 6 8 10 11 10 2 0 4 -4 4 -10z m50
-40 c0 -5 -2 -10 -4 -10 -3 0 -8 5 -11 10 -3 6 -1 10 4 10 6 0 11 -4 11 -10z
m-122 -25 c-3 -3 -9 2 -12 12 -6 14 -5 15 5 6 7 -7 10 -15 7 -18z m139 1 c-4
-35 -26 -56 -56 -56 -19 0 -22 3 -12 9 8 5 21 7 29 3 10 -3 13 -1 8 6 -4 7 -1
12 9 12 9 0 14 4 11 9 -6 9 2 41 10 41 3 0 3 -11 1 -24z m-50 -20 c-2 -6 -12
-10 -21 -10 -9 1 -16 -3 -16 -9 0 -6 -3 -7 -6 -4 -4 4 -1 13 6 22 17 20 -4 20
-24 -1 -9 -8 -16 -12 -16 -8 0 4 8 15 18 24 13 13 22 15 40 7 12 -6 21 -15 19
-21z m1377 -41 c3 -8 0 -14 -7 -12 -7 1 -11 -4 -9 -10 1 -7 -2 -13 -8 -13 -13
0 -13 6 0 31 13 23 16 24 24 4z m-1600 -224 c-2 -2 -10 1 -17 7 -8 7 -18 8
-22 4 -5 -4 -5 -1 -1 6 4 6 2 12 -3 12 -6 0 -11 5 -11 11 0 6 13 0 29 -13 15
-13 27 -25 25 -27z m184 18 c3 -12 2 -12 -7 1 -9 12 -13 12 -33 -6 -32 -29
-48 -37 -48 -25 0 6 6 11 13 11 8 0 22 9 32 20 20 22 37 22 43 -1z m-148 -23
c0 -3 -4 -8 -10 -11 -5 -3 -10 -1 -10 4 0 6 5 11 10 11 6 0 10 -2 10 -4z m-5
-44 c-3 -3 -11 0 -18 7 -9 10 -8 11 6 5 10 -3 15 -9 12 -12z m379 -57 c-4 -8
-8 -15 -10 -15 -2 0 -4 7 -4 15 0 8 4 15 10 15 5 0 7 -7 4 -15z m-377 -20 c0
-8 -4 -12 -9 -9 -5 3 -6 10 -3 15 9 13 12 11 12 -6z m388 -5 c-3 -5 -12 -10
-18 -10 -7 0 -6 4 3 10 19 12 23 12 15 0z m8 -34 c4 -10 1 -13 -8 -9 -8 3 -12
9 -9 14 7 12 11 11 17 -5z m-333 -6 c0 -5 -2 -10 -4 -10 -3 0 -8 5 -11 10 -3
6 -1 10 4 10 6 0 11 -4 11 -10z m351 -43 c-8 -8 -14 -7 -23 2 -11 10 -9 11 6
5 15 -6 17 -4 11 6 -6 9 -4 11 4 5 9 -5 10 -10 2 -18z m834 -106 c-6 -5 -25
10 -25 20 0 5 6 4 14 -3 8 -7 12 -15 11 -17z m-625 15 c0 -3 -4 -8 -10 -11 -5
-3 -10 -1 -10 4 0 6 5 11 10 11 6 0 10 -2 10 -4z m-120 -10 c0 -3 -4 -8 -10
-11 -5 -3 -10 -1 -10 4 0 6 5 11 10 11 6 0 10 -2 10 -4z"/>
<path d="M1252 2095 c-12 -14 -18 -25 -12 -25 5 0 14 9 20 20 6 11 15 18 21
15 5 -4 9 -1 9 4 0 18 -15 12 -38 -14z"/>
<path d="M2080 1483 c0 -6 8 -17 18 -24 16 -13 16 -13 2 6 -8 11 -16 22 -17
24 -2 2 -3 0 -3 -6z"/>
<path d="M565 1448 c-24 -25 -25 -29 -8 -19 13 6 27 20 33 31 15 27 10 25 -25
-12z"/>
<path d="M526 1393 c-6 -14 -5 -15 5 -6 7 7 10 15 7 18 -3 3 -9 -2 -12 -12z"/>
<path d="M481 793 c6 -7 17 -13 23 -12 7 0 6 2 -2 6 -6 2 -10 8 -8 12 3 4 -1
8 -9 8 -11 0 -12 -4 -4 -14z"/>
<path d="M1670 619 c0 -5 5 -7 10 -4 6 3 10 8 10 11 0 2 -4 4 -10 4 -5 0 -10
-5 -10 -11z"/>
<path d="M1560 603 c0 -5 3 -13 7 -16 3 -4 8 -19 9 -34 2 -14 9 -30 16 -34 7
-5 9 -9 4 -9 -6 0 0 -9 12 -20 12 -12 22 -27 22 -34 0 -7 12 -23 27 -37 19
-17 24 -19 20 -7 -3 9 -3 19 1 21 4 2 1 2 -5 1 -7 -2 -13 0 -13 5 0 4 -11 25
-25 45 -13 20 -21 36 -18 36 4 0 -4 11 -16 24 -14 15 -19 26 -12 31 6 3 11 11
11 17 0 6 -3 8 -7 5 -3 -4 -12 -2 -20 4 -7 6 -13 7 -13 2z"/>
<path d="M815 554 c7 -24 11 -44 10 -44 -7 0 44 -133 55 -144 7 -7 10 -1 10
17 0 15 -5 27 -11 27 -6 0 -8 7 -5 16 4 9 2 13 -5 8 -7 -4 -10 -1 -7 7 3 8 1
22 -4 32 -9 18 -18 49 -21 77 -1 8 -6 19 -12 23 -5 5 3 6 20 2 38 -8 28 3 -13
14 l-30 9 13 -44z"/>
<path d="M850 556 c0 -2 9 -6 20 -9 11 -3 20 -1 20 4 0 5 -9 9 -20 9 -11 0
-20 -2 -20 -4z"/>
<path d="M1440 544 c-17 -10 -18 -13 -5 -8 11 3 25 7 32 7 7 0 10 4 7 9 -6 10
-4 10 -34 -8z"/>
<path d="M1090 539 c0 -5 5 -7 10 -4 6 3 10 8 10 11 0 2 -4 4 -10 4 -5 0 -10
-5 -10 -11z"/>
<path d="M1288 523 c7 -3 16 -2 19 1 4 3 -2 6 -13 5 -11 0 -14 -3 -6 -6z"/>
</g>
</svg>
